<?xml version="1.0" encoding="utf-8"?>
<!-- Generator: Adobe Illustrator 23.0.6, SVG Export Plug-In . SVG Version: 6.00 Build 0)  -->
<svg version="1.1" id="Capa_1" xmlns="http://www.w3.org/2000/svg" xmlns:xlink="http://www.w3.org/1999/xlink" x="0px" y="0px"
	 viewBox="0 0 512 512" style="enable-background:new 0 0 512 512;" xml:space="preserve">
<style type="text/css">
	.st0{fill:#597A65;}
</style>
<g>
	<g>
		<path class="st0" d="M432,100c-5.5,0-10,4.5-10,10s4.5,10,10,10s10-4.5,10-10S437.5,100,432,100z"/>
	</g>
</g>
<g>
	<g>
		<path class="st0" d="M80,100c-5.5,0-10,4.5-10,10s4.5,10,10,10s10-4.5,10-10S85.5,100,80,100z"/>
	</g>
</g>
<g>
	<g>
		<path class="st0" d="M502,220h-12c-3.7-28.8-12.8-56.3-26.9-81.7c-2.7-4.8-8.8-6.6-13.6-3.9c-4.8,2.7-6.6,8.8-3.9,13.6
			c12.5,22.5,20.6,46.6,24.3,72H462c-5.5,0-10,4.5-10,10v40c0,5.5,4.5,10,10,10h40c5.5,0,10-4.5,10-10v-40
			C512,224.5,507.5,220,502,220z M492,260h-20v-20h9.1c0,0,0,0,0,0c0,0,0,0,0,0H492V260z"/>
	</g>
</g>
<g>
	<g>
		<path class="st0" d="M366,292.6c0-0.2,0-0.3,0-0.5c0-0.2,0-0.4-0.1-0.6c0-0.1,0-0.3-0.1-0.4c0-0.2-0.1-0.5-0.2-0.7
			c0-0.1,0-0.2-0.1-0.3c-0.1-0.3-0.2-0.6-0.3-0.9c0,0,0-0.1,0-0.1c-0.1-0.3-0.3-0.7-0.5-1l-100-183c-1.8-3.2-5.1-5.2-8.8-5.2
			c-3.7,0-7,2-8.8,5.2l-100,183c-0.2,0.3-0.3,0.6-0.5,1c0,0,0,0.1,0,0.1c-0.1,0.3-0.2,0.6-0.3,0.9c0,0.1,0,0.2-0.1,0.3
			c-0.1,0.2-0.1,0.5-0.2,0.7c0,0.1,0,0.3-0.1,0.4c0,0.2-0.1,0.4-0.1,0.6c0,0.2,0,0.3,0,0.5c0,0.1,0,0.2,0,0.4c0,0.1,0,0.1,0,0.2
			c0,0.2,0,0.3,0,0.5c0,0.2,0,0.4,0.1,0.6c0,0.1,0,0.3,0.1,0.4c0,0.2,0.1,0.4,0.1,0.6c0,0.1,0.1,0.2,0.1,0.4
			c0.1,0.2,0.1,0.5,0.2,0.7c0,0.1,0,0.1,0.1,0.2l36.1,95.6c-2.9,1.4-5.6,3.3-7.9,5.7c-5.7,5.7-8.8,13.2-8.8,21.2
			c0,13,8.4,24.2,20,28.3V502c0,5.5,4.5,10,10,10h120c5.5,0,10-4.5,10-10v-54.7c4.2-1.5,8-3.9,11.2-7.1c5.7-5.7,8.8-13.2,8.8-21.2
			c0-11.8-6.8-22-16.7-26.9l36.1-95.6c0-0.1,0-0.1,0.1-0.2c0.1-0.2,0.1-0.4,0.2-0.7c0-0.1,0.1-0.2,0.1-0.4c0-0.2,0.1-0.4,0.1-0.6
			c0-0.1,0-0.3,0.1-0.4c0-0.2,0-0.4,0.1-0.6c0-0.2,0-0.3,0-0.5c0-0.1,0-0.1,0-0.2C366,292.9,366,292.7,366,292.6z M256,283
			c5.5,0,10,4.5,10,10s-4.5,10-10,10s-10-4.5-10-10S250.5,283,256,283z M306,492H206v-43h100V492z M323.1,426.1
			c-1.9,1.9-4.4,2.9-7.1,2.9H196c-5.5,0-10-4.5-10-10c0-2.7,1-5.2,2.9-7.1c1.9-1.9,4.4-2.9,7.1-2.9h119.9c0,0,0,0,0.1,0c0,0,0,0,0,0
			c5.5,0,10,4.5,10,10C326,421.7,325,424.2,323.1,426.1z M309.1,389H202.9l-32.5-86H196c5.5,0,10-4.5,10-10s-4.5-10-10-10h-23.1
			L246,149.2v115.6c-11.6,4.1-20,15.2-20,28.3c0,16.5,13.5,30,30,30s30-13.5,30-30c0-13-8.4-24.2-20-28.3V149.2L339.1,283H316
			c-5.5,0-10,4.5-10,10s4.5,10,10,10h25.5L309.1,389z"/>
	</g>
</g>
<g>
	<g>
		<path class="st0" d="M62.5,134.4c-4.8-2.7-10.9-1-13.6,3.9C34.7,163.7,25.7,191.2,22,220H10c-5.5,0-10,4.5-10,10v40
			c0,5.5,4.5,10,10,10h40c5.5,0,10-4.5,10-10v-40c0-5.5-4.5-10-10-10h-7.9c3.6-25.3,11.7-49.5,24.3-72
			C69.1,143.2,67.3,137.1,62.5,134.4z M40,260H20v-20h10.9c0,0,0,0,0,0c0,0,0,0,0,0H40V260z"/>
	</g>
</g>
<g>
	<g>
		<path class="st0" d="M482,0c-13,0-24.2,8.4-28.3,20H286V10c0-5.5-4.5-10-10-10h-40c-5.5,0-10,4.5-10,10v10H58.3
			C54.2,8.4,43,0,30,0C13.5,0,0,13.5,0,30s13.5,30,30,30c13,0,24.2-8.4,28.3-20h100.5c-21.3,8.9-40.9,20.5-57,34.1
			c-4.2,3.6-4.8,9.9-1.2,14.1c2,2.3,4.8,3.6,7.7,3.6c2.3,0,4.6-0.8,6.4-2.4c28.7-24.2,69.6-41.5,111.3-47.3V50c0,5.5,4.5,10,10,10
			h40c5.5,0,10-4.5,10-10v-7.9c41.6,5.8,82.6,23.1,111.3,47.3c1.9,1.6,4.2,2.4,6.4,2.4c2.8,0,5.7-1.2,7.6-3.6
			c3.6-4.2,3-10.5-1.2-14.1c-16.1-13.6-35.7-25.2-57-34.1h100.5c4.1,11.6,15.2,20,28.3,20c16.5,0,30-13.5,30-30S498.5,0,482,0z
			 M30,40c-5.5,0-10-4.5-10-10s4.5-10,10-10s10,4.5,10,10S35.5,40,30,40z M266,30v0.9V40h-20v-9.1V30V20h20V30z M482,40
			c-5.5,0-10-4.5-10-10s4.5-10,10-10s10,4.5,10,10S487.5,40,482,40z"/>
	</g>
</g>
</svg>
